<svg width="80" height="80" viewBox="0 0 80 80" fill="none" xmlns="http://www.w3.org/2000/svg">
<path fill-rule="evenodd" clip-rule="evenodd" d="M40 2.76021C19.3627 2.76021 2.76022 19.4827 2.76022 40.0038C2.76022 60.6445 19.3594 77.2398 40 77.2398C60.6406 77.2398 77.2398 60.6445 77.2398 40.0038H80C80 62.1693 62.1646 80 40 80C17.8354 80 0 62.1693 0 40.0038C0 17.9644 17.8322 0 40 0V2.76021Z" fill="#40B2A4"/>
<path d="M78.6664 1.33406H61.2187V18.8924H78.6664V1.33406Z" fill="#40B2A4"/>
<path fill-rule="evenodd" clip-rule="evenodd" d="M54.1071 24.4759H27.7976V30.7616H54.1071V24.4759ZM24.7619 21.3331V33.9045H57.1429V21.3331H24.7619Z" fill="#40B2A4"/>
<path fill-rule="evenodd" clip-rule="evenodd" d="M54.1071 34.9521H27.7976V55.9045H54.1071V34.9521ZM24.7619 31.8092V59.0473H57.1429V31.8092H24.7619Z" fill="#40B2A4"/>
<path fill-rule="evenodd" clip-rule="evenodd" d="M30.8333 17.1426V23.4283H38.9286V17.1426H30.8333Z" fill="#40B2A4"/>
<path fill-rule="evenodd" clip-rule="evenodd" d="M42.9762 17.1426V23.4283H51.0714V17.1426H42.9762Z" fill="#40B2A4"/>
<path fill-rule="evenodd" clip-rule="evenodd" d="M32.8571 38.095V44.3807H38.9286V38.095H32.8571Z" fill="#40B2A4"/>
<path fill-rule="evenodd" clip-rule="evenodd" d="M42.9762 38.095V44.3807H49.0476V38.095H42.9762Z" fill="#40B2A4"/>
<path fill-rule="evenodd" clip-rule="evenodd" d="M42.9762 46.4759V52.7616H49.0476V46.4759H42.9762Z" fill="#40B2A4"/>
<path fill-rule="evenodd" clip-rule="evenodd" d="M32.8571 46.4759V52.7616H38.9286V46.4759H32.8571Z" fill="#40B2A4"/>
</svg>
