<svg width="84" height="84" viewBox="0 0 84 84" fill="none" xmlns="http://www.w3.org/2000/svg">
<path fill-rule="evenodd" clip-rule="evenodd" d="M55.515 25.502H61.5124L63.8585 32.9305V35.4733H53.1594V32.9298L55.515 25.502ZM57.3574 28.0191L55.7917 32.9562H61.2269L59.6677 28.0191H57.3574Z" fill="white"/>
<path fill-rule="evenodd" clip-rule="evenodd" d="M57.3216 39.3618V34.2148H59.8387V39.3618H57.3216Z" fill="white"/>
<path fill-rule="evenodd" clip-rule="evenodd" d="M53.1594 38.1032H68.0207V47.9309H53.1594V38.1032ZM55.6765 40.6204V45.4137H65.5036V40.6204H55.6765Z" fill="white"/>
<path fill-rule="evenodd" clip-rule="evenodd" d="M53.1594 45.4138H68.0207V55.25H53.1594V45.4138ZM55.6765 47.9309V52.7328H65.5036V47.9309H55.6765Z" fill="white"/>
<path fill-rule="evenodd" clip-rule="evenodd" d="M54.1048 57.2367V53.9914H56.6219V57.2367H54.1048Z" fill="white"/>
<path fill-rule="evenodd" clip-rule="evenodd" d="M46.8609 57.2367V53.9914H49.3781V57.2367H46.8609Z" fill="white"/>
<path fill-rule="evenodd" clip-rule="evenodd" d="M19.8953 57.2367V53.9914H22.4124V57.2367H19.8953Z" fill="white"/>
<path fill-rule="evenodd" clip-rule="evenodd" d="M64.5654 57.2367V53.9914H67.0826V57.2367H64.5654Z" fill="white"/>
<path fill-rule="evenodd" clip-rule="evenodd" d="M21.4736 28.0191V38.2715H18.9564V27.8423C18.9564 27.2734 19.1626 26.7209 19.5125 26.2972C19.8675 25.8673 20.4354 25.502 21.153 25.502H48.1193C49.5955 25.502 50.4498 26.7229 50.4498 27.8423V38.2715H47.9326V28.0191H21.4736Z" fill="white"/>
<path fill-rule="evenodd" clip-rule="evenodd" d="M20.4726 41.7689C20.4237 41.8183 20.4017 41.8772 20.4017 41.931V52.7328H49.0046V41.931C49.0046 41.8772 48.9826 41.8183 48.9337 41.7689C48.8849 41.7196 48.8318 41.7021 48.7893 41.7021H20.617C20.5745 41.7021 20.5214 41.7196 20.4726 41.7689ZM17.8845 41.931C17.8845 40.4355 19.1071 39.185 20.617 39.185H48.7893C50.2991 39.185 51.5218 40.4355 51.5218 41.931V55.2499H17.8845V41.931Z" fill="white"/>
<path fill-rule="evenodd" clip-rule="evenodd" d="M26.3881 35.4734C25.7783 35.4734 25.5028 35.8162 25.5028 36.2432V38.2715H22.9856V36.2432C22.9856 34.2361 24.586 32.9562 26.3881 32.9562H30.5503C32.2726 32.9562 33.8188 34.2871 33.8188 36.2432V38.2715H31.3016V36.2432C31.3016 35.7652 30.9719 35.4734 30.5503 35.4734H26.3881Z" fill="white"/>
<path fill-rule="evenodd" clip-rule="evenodd" d="M38.8574 35.4734C38.2475 35.4734 37.972 35.8162 37.972 36.2432V38.2715H35.4549V36.2432C35.4549 34.2361 37.0553 32.9562 38.8574 32.9562H43.0195C44.7418 32.9562 46.288 34.2871 46.288 36.2432V38.2715H43.7709V36.2432C43.7709 35.7652 43.4412 35.4734 43.0195 35.4734H38.8574Z" fill="white"/>
<path fill-rule="evenodd" clip-rule="evenodd" d="M41.9759 3.47726C20.6139 3.47726 3.42855 20.7871 3.42855 42.0288C3.42855 63.3944 20.6106 80.5725 41.9759 80.5725C63.3412 80.5725 80.5233 63.3944 80.5233 42.0288H83.3804C83.3804 64.9727 64.9188 83.4296 41.9759 83.4296C19.033 83.4296 0.571411 64.9727 0.571411 42.0288C0.571411 19.2154 19.0297 0.620117 41.9759 0.620117V3.47726Z" fill="white"/>
<path d="M82 2.00103H63.9397V20.176H82V2.00103Z" fill="white"/>
</svg>
