<svg width="84" height="84" viewBox="0 0 84 84" fill="none" xmlns="http://www.w3.org/2000/svg">
<path fill-rule="evenodd" clip-rule="evenodd" d="M27.621 24.2219H35.4171V30.6687H32.8614V26.7959H30.1767V35.943H27.621V24.2219Z" fill="#40B2A4"/>
<path fill-rule="evenodd" clip-rule="evenodd" d="M27.6732 44.7812V57.8561H25.1175V44.7812H27.6732Z" fill="#40B2A4"/>
<path fill-rule="evenodd" clip-rule="evenodd" d="M41.9957 21.0479L62.9524 42.1558L57.5811 47.3879L41.9959 31.6875L26.4098 47.3888L21.0476 42.1551L41.9957 21.0479ZM41.9961 24.6885L24.6901 42.1259L26.3815 43.7767L41.9959 28.0469L57.6112 43.7776L59.3077 42.1251L41.9961 24.6885Z" fill="#40B2A4"/>
<path fill-rule="evenodd" clip-rule="evenodd" d="M37.1913 43.4942H46.8077V59.1431H37.1913V43.4942ZM39.747 46.0682V56.5691H44.252V46.0682H39.747Z" fill="#40B2A4"/>
<path fill-rule="evenodd" clip-rule="evenodd" d="M61.13 59.1431H22.8689V56.5691H61.13V59.1431Z" fill="#40B2A4"/>
<path fill-rule="evenodd" clip-rule="evenodd" d="M41.9759 3.47726C20.6139 3.47726 3.42855 20.7871 3.42855 42.0288C3.42855 63.3944 20.6106 80.5725 41.9759 80.5725C63.3412 80.5725 80.5233 63.3944 80.5233 42.0288H83.3804C83.3804 64.9727 64.9188 83.4296 41.9759 83.4296C19.033 83.4296 0.571411 64.9727 0.571411 42.0288C0.571411 19.2154 19.0297 0.620117 41.9759 0.620117V3.47726Z" fill="#40B2A4"/>
<path d="M82 2.00103H63.9397V20.176H82V2.00103Z" fill="#40B2A4"/>
</svg>
