<svg width="84" height="84" viewBox="0 0 84 84" fill="none" xmlns="http://www.w3.org/2000/svg">
<path fill-rule="evenodd" clip-rule="evenodd" d="M44.7593 25.4838L49.638 29.4181L47.6268 31.6581L43.0032 27.9294L31.2653 37.6089C31.2033 37.6685 31.1663 37.7224 31.1441 37.7681C31.1214 37.8151 31.1034 37.8751 31.1034 37.9625V63.4883C31.1034 63.7088 31.1816 63.8265 31.2555 63.8933C31.3344 63.9647 31.5011 64.0588 31.8096 64.0588H54.1904C54.5049 64.0588 54.6701 63.9636 54.7462 63.8946C54.8176 63.8299 54.8966 63.7126 54.8966 63.4883V37.9625C54.8966 37.8751 54.8786 37.8151 54.8559 37.7681C54.8335 37.722 54.7961 37.6676 54.7332 37.6075L49.8591 33.558L51.905 31.3463L56.834 35.4416L56.8576 35.4629C57.5188 36.0606 58 36.9095 58 37.9625V63.4883C58 64.4602 57.6157 65.3635 56.8911 66.0202C56.1712 66.6728 55.2074 67 54.1904 67H31.8096C30.7948 67 29.8326 66.6717 29.1134 66.0216C28.3892 65.3669 28 64.464 28 63.4883V37.9625C28 36.9095 28.4812 36.0606 29.1424 35.4629L29.168 35.4397L41.2329 25.4905C42.2183 24.6296 43.771 24.6273 44.7593 25.4838Z" fill="#40B2A4"/>
<path fill-rule="evenodd" clip-rule="evenodd" d="M37.3103 45.4314V48.3725H38.3448V45.4314H37.3103ZM34.7013 43.3841C35.1006 42.8559 35.7464 42.4902 36.5274 42.4902H39.1278C39.9253 42.4902 40.5296 42.9112 40.879 43.335C41.2444 43.7781 41.4483 44.3445 41.4483 44.9397V48.8642C41.4483 49.4595 41.2444 50.0258 40.879 50.4689C40.5296 50.8927 39.9253 51.3137 39.1278 51.3137H36.5274C35.7464 51.3137 35.1006 50.948 34.7013 50.4198C34.3327 49.9321 34.2069 49.363 34.2069 48.8642V44.9397C34.2069 44.4409 34.3327 43.8718 34.7013 43.3841Z" fill="#40B2A4"/>
<path fill-rule="evenodd" clip-rule="evenodd" d="M47.6564 52.7635C47.6566 52.7635 47.6564 52.7655 47.6556 52.7694L47.6564 52.7635ZM47.6552 53.2745V56.2157H48.6897V53.2745H47.6552ZM48.6884 52.7635C48.6885 52.7635 48.6889 52.7654 48.6892 52.7694L48.6884 52.7635ZM48.6884 56.7267C48.6883 56.7266 48.6884 56.7247 48.6892 56.7208L48.6884 56.7267ZM47.6564 56.7267C47.6563 56.7267 47.656 56.7248 47.6556 56.7208L47.6564 56.7267ZM45.0091 51.2679C45.3415 50.7953 45.9496 50.3333 46.7921 50.3333H49.5527C50.3952 50.3333 51.0033 50.7953 51.3357 51.2679C51.6615 51.731 51.7931 52.2746 51.7931 52.7829V56.7073C51.7931 57.2156 51.6615 57.7592 51.3357 58.2223C51.0033 58.6949 50.3952 59.1569 49.5527 59.1569H46.7921C45.9496 59.1569 45.3415 58.6949 45.0091 58.2223C44.6833 57.7592 44.5517 57.2156 44.5517 56.7073V52.7829C44.5517 52.2746 44.6833 51.731 45.0091 51.2679Z" fill="#40B2A4"/>
<path fill-rule="evenodd" clip-rule="evenodd" d="M49.4351 44.8155L39.0903 58.541L36.5649 56.8315L46.9097 43.106L49.4351 44.8155Z" fill="#40B2A4"/>
<path fill-rule="evenodd" clip-rule="evenodd" d="M43.0608 19.9412C39.8815 19.9412 37.3103 22.4149 37.3103 25.2722C37.3103 26.1027 37.5044 26.9118 37.8758 27.6155L35.1003 28.9314C34.4992 27.7926 34.2069 26.5289 34.2069 25.2722C34.2069 20.7592 38.2008 17 43.0608 17C47.8161 17 51.7931 20.7752 51.7931 25.2722C51.7931 29.8744 47.834 33.6667 43.0608 33.6667V30.7255C46.0837 30.7255 48.6897 28.2847 48.6897 25.2722C48.6897 22.399 46.1015 19.9412 43.0608 19.9412Z" fill="#40B2A4"/>
<path fill-rule="evenodd" clip-rule="evenodd" d="M41.9759 3.47726C20.6139 3.47726 3.42855 20.7871 3.42855 42.0288C3.42855 63.3944 20.6106 80.5725 41.9759 80.5725C63.3412 80.5725 80.5233 63.3944 80.5233 42.0288H83.3804C83.3804 64.9727 64.9188 83.4296 41.9759 83.4296C19.033 83.4296 0.571411 64.9727 0.571411 42.0288C0.571411 19.2154 19.0297 0.620117 41.9759 0.620117V3.47726Z" fill="#40B2A4"/>
<path d="M82 2.00103H63.9397V20.176H82V2.00103Z" fill="#40B2A4"/>
</svg>
